<?xml version="1.0" encoding="UTF-8" standalone="no"?>
<!-- Created with Inkscape (http://www.inkscape.org/) -->

<svg
   version="1.1"
   id="svg2"
   width="1764.1067"
   height="604.71997"
   viewBox="0 0 1764.1067 604.71997"
   sodipodi:docname="UKRI_NERC_HORIZONTAL_GS.eps"
   xmlns:inkscape="http://www.inkscape.org/namespaces/inkscape"
   xmlns:sodipodi="http://sodipodi.sourceforge.net/DTD/sodipodi-0.dtd"
   xmlns="http://www.w3.org/2000/svg"
   xmlns:svg="http://www.w3.org/2000/svg">
  <defs
     id="defs6" />
  <sodipodi:namedview
     id="namedview4"
     pagecolor="#ffffff"
     bordercolor="#000000"
     borderopacity="0.25"
     inkscape:showpageshadow="2"
     inkscape:pageopacity="0.0"
     inkscape:pagecheckerboard="0"
     inkscape:deskcolor="#d1d1d1" />
  <g
     id="g8"
     inkscape:groupmode="layer"
     inkscape:label="ink_ext_XXXXXX"
     transform="matrix(1.3333333,0,0,-1.3333333,0,604.72)">
    <g
       id="g10"
       transform="scale(0.1)">
      <path
         d="M 7700.88,3374.44 V 2810.9 H 7592.2 l -253.6,376.77 h -6.43 V 2810.9 h -103.86 v 563.54 h 108.68 l 253.6,-379.18 h 6.44 v 379.18 h 103.85"
         style="fill:#231f20;fill-opacity:1;fill-rule:nonzero;stroke:none"
         id="path12" />
      <path
         d="m 8195.29,2903.49 v -92.59 h -385.62 v 563.54 h 377.57 v -92.58 h -273.72 v -140.08 h 235.88 v -90.16 h -235.88 v -148.13 h 281.77"
         style="fill:#231f20;fill-opacity:1;fill-rule:nonzero;stroke:none"
         id="path14" />
      <path
         d="m 8380.26,3120.85 h 107.07 c 54.75,0 87.76,34.61 87.76,82.11 0,49.92 -33.01,81.31 -87.76,81.31 h -107.07 z m 209.31,-309.95 -117.53,219.78 h -91.78 V 2810.9 h -103.85 v 563.54 h 222.99 c 112.72,0 181.95,-66.82 181.95,-165.84 0,-76.48 -41.87,-132.83 -108.68,-158.6 l 129.61,-239.1 h -112.71"
         style="fill:#231f20;fill-opacity:1;fill-rule:nonzero;stroke:none"
         id="path16" />
      <path
         d="m 9019.77,2802.85 c -172.28,0 -276.94,121.56 -276.94,287.41 0,170.67 111.1,292.23 276.94,292.23 127.19,0 228.64,-67.62 247.95,-192.41 h -114.31 c -17.72,57.97 -65.22,94.19 -133.64,94.19 -100.63,0 -168.26,-84.52 -168.26,-194.01 0,-113.52 72.45,-189.19 168.26,-189.19 73.26,0 124.78,36.22 142.5,90.97 h 114.31 c -18.51,-120.76 -126.4,-189.19 -256.81,-189.19"
         style="fill:#231f20;fill-opacity:1;fill-rule:nonzero;stroke:none"
         id="path18" />
      <path
         d="m 7613.93,2078.48 v -92.58 h -385.62 v 563.54 h 377.57 v -92.58 h -273.71 v -140.08 h 235.88 v -90.16 h -235.88 v -148.14 h 281.76"
         style="fill:#231f20;fill-opacity:1;fill-rule:nonzero;stroke:none"
         id="path20" />
      <path
         d="m 7680.48,2388.43 h 94.19 l 8.85,-47.5 h 6.45 c 24.15,31.4 57.96,55.55 118.34,55.55 95.8,0 156.98,-61.18 156.98,-166.64 V 1985.9 h -103.04 v 223 c 0,66.02 -37.84,98.22 -86.15,98.22 -49.1,0 -92.58,-31.39 -92.58,-103.04 V 1985.9 h -103.04 v 402.53"
         style="fill:#231f20;fill-opacity:1;fill-rule:nonzero;stroke:none"
         id="path22" />
      <path
         d="m 8088.12,2388.43 h 106.27 l 107.07,-295.46 h 6.45 l 105.46,295.46 h 105.47 L 8365.07,1985.9 h -123.18 l -153.77,402.53"
         style="fill:#231f20;fill-opacity:1;fill-rule:nonzero;stroke:none"
         id="path24" />
      <path
         d="m 8558.81,2388.43 h 103.04 V 1985.9 h -103.04 z m -12.08,113.51 c 0,35.43 29.79,62.8 63.6,62.8 33.81,0 61.99,-27.37 61.99,-62.8 0,-33.01 -28.18,-61.98 -61.99,-61.98 -33.81,0 -63.6,28.97 -63.6,61.98"
         style="fill:#231f20;fill-opacity:1;fill-rule:nonzero;stroke:none"
         id="path26" />
      <path
         d="m 8740.57,2388.43 h 93.38 l 9.66,-57.16 h 6.45 c 24.95,40.26 52.32,65.21 119.95,65.21 h 28.98 v -103.05 c -14.49,2.41 -28.98,3.22 -43.47,3.22 -88.56,0 -111.91,-65.21 -111.91,-123.17 V 1985.9 h -103.04 v 402.53"
         style="fill:#231f20;fill-opacity:1;fill-rule:nonzero;stroke:none"
         id="path28" />
      <path
         d="m 9344.81,2187.97 c 0,66.82 -44.27,119.15 -110.29,119.15 -66,0 -109.48,-52.33 -109.48,-119.15 0,-67.62 43.48,-120.76 109.48,-120.76 66.83,0 110.29,53.14 110.29,120.76 z m -322.82,0 c 0,123.98 91.78,208.51 212.53,208.51 120.76,0 212.54,-85.33 212.54,-208.51 0,-124.78 -90.98,-210.11 -212.54,-210.11 -119.95,0 -212.53,86.13 -212.53,210.11"
         style="fill:#231f20;fill-opacity:1;fill-rule:nonzero;stroke:none"
         id="path30" />
      <path
         d="m 9509.17,2388.43 h 94.19 l 8.86,-47.5 h 6.44 c 24.15,31.4 57.96,55.55 118.34,55.55 95.8,0 156.98,-61.18 156.98,-166.64 V 1985.9 h -103.04 v 223 c 0,66.02 -37.84,98.22 -86.15,98.22 -49.1,0 -92.57,-31.39 -92.57,-103.04 V 1985.9 h -103.05 v 402.53"
         style="fill:#231f20;fill-opacity:1;fill-rule:nonzero;stroke:none"
         id="path32" />
      <path
         d="m 9972.44,2388.43 h 94.16 l 8.9,-47.5 h 6.4 c 21.8,29.79 55.6,55.55 110.3,55.55 63.6,0 91.8,-34.62 105.5,-63.59 h 6.4 c 21.8,31.39 57.2,63.59 125.6,63.59 82.9,0 136.1,-49.91 136.1,-147.33 V 1985.9 h -103.1 v 243.94 c 0,51.52 -30.6,77.28 -69.2,77.28 -43.5,0 -73.3,-32.2 -73.3,-82.92 v -238.3 h -103 v 240.72 c 0,53.13 -29.8,80.5 -68.5,80.5 -37,0 -73.2,-26.57 -73.2,-82.12 v -239.1 h -103.06 v 402.53"
         style="fill:#231f20;fill-opacity:1;fill-rule:nonzero;stroke:none"
         id="path34" />
      <path
         d="m 10731,2229.03 h 192.4 c -2.4,49.91 -39.4,85.33 -92.6,85.33 -55.5,0 -92.6,-37.03 -99.8,-85.33 z m 291.4,-115.93 c -16.1,-82.92 -85.3,-135.24 -187.6,-135.24 -119.9,0 -206.9,81.3 -206.9,205.28 0,132.83 91.8,213.34 202.9,213.34 99,0 190.8,-62.79 190.8,-206.9 0,-9.66 -0.8,-18.51 -1.6,-29.79 h -289.8 c 4,-57.96 41.8,-99.82 104.6,-99.82 45.1,0 77.3,18.51 88.6,53.13 h 99"
         style="fill:#231f20;fill-opacity:1;fill-rule:nonzero;stroke:none"
         id="path36" />
      <path
         d="m 11087.7,2388.43 h 94.2 l 8.8,-47.5 h 6.5 c 24.1,31.4 57.9,55.55 118.3,55.55 95.8,0 157,-61.18 157,-166.64 V 1985.9 h -103.1 v 223 c 0,66.02 -37.8,98.22 -86.1,98.22 -49.1,0 -92.6,-31.39 -92.6,-103.04 V 1985.9 h -103 v 402.53"
         style="fill:#231f20;fill-opacity:1;fill-rule:nonzero;stroke:none"
         id="path38" />
      <path
         d="m 11592.9,2095.39 v 211.73 h -86.1 v 81.31 h 27.3 c 49.1,0 68.5,17.71 68.5,61.18 v 48.3 h 93.3 v -109.48 h 105.5 v -81.31 h -105.5 v -198.04 c 0,-22.54 5.7,-49.92 54,-49.92 12.1,0 27.4,2.42 39.4,5.64 v -78.1 c -17.7,-4.02 -41.8,-8.84 -70.8,-8.84 -112.7,0 -125.6,73.25 -125.6,117.53"
         style="fill:#231f20;fill-opacity:1;fill-rule:nonzero;stroke:none"
         id="path40" />
      <path
         d="m 12083.5,2160.6 -90.2,-9.66 c -37,-4.02 -65.2,-19.32 -65.2,-50.72 0,-32.2 25,-43.48 57.2,-43.48 43.4,0 98.2,20.94 98.2,84.53 z m 141.7,-97.41 v -77.29 h -43.5 c -37.8,0 -67.6,11.27 -81.3,48.3 -27.4,-34.62 -69.2,-56.34 -132.8,-56.34 -82.2,0 -142.5,38.64 -142.5,118.34 0,77.28 58.7,115.11 132.8,122.36 l 125.6,12.88 v 16.91 c 0,44.28 -28.2,66.01 -67.6,66.01 -43.5,0 -66.1,-24.15 -72.5,-60.37 h -103 c 8,83.72 72.4,142.49 175.5,142.49 94.1,0 170.6,-47.5 170.6,-155.37 v -147.33 c 0,-20.93 9.7,-30.59 29,-30.59 h 9.7"
         style="fill:#231f20;fill-opacity:1;fill-rule:nonzero;stroke:none"
         id="path42" />
      <path
         d="m 12277.4,2557.49 h 103 V 1985.9 h -103 v 571.59"
         style="fill:#231f20;fill-opacity:1;fill-rule:nonzero;stroke:none"
         id="path44" />
      <path
         d="m 7591.4,1445.89 c 0,108.68 -51.53,183.56 -169.88,183.56 h -86.94 V 1255.9 h 86.94 c 118.35,0 169.88,80.5 169.88,189.99 z m 108.68,-3.22 c 0,-172.28 -102.25,-281.77 -274.53,-281.77 h -197.24 v 563.54 h 197.24 c 172.28,0 274.53,-107.07 274.53,-281.77"
         style="fill:#231f20;fill-opacity:1;fill-rule:nonzero;stroke:none"
         id="path46" />
      <path
         d="m 8008.6,1335.59 -90.16,-9.65 c -37.03,-4.03 -65.22,-19.33 -65.22,-50.73 0,-32.19 24.96,-43.47 57.16,-43.47 43.48,0 98.22,20.93 98.22,84.53 z m 141.69,-97.41 v -77.28 h -43.47 c -37.84,0 -67.63,11.27 -81.31,48.3 -27.38,-34.62 -69.24,-56.35 -132.83,-56.35 -82.12,0 -142.5,38.64 -142.5,118.34 0,77.29 58.76,115.12 132.84,122.36 l 125.58,12.88 v 16.92 c 0,44.28 -28.17,66 -67.62,66 -43.47,0 -66.02,-24.15 -72.46,-60.37 h -103.04 c 8.04,83.72 72.45,142.5 175.5,142.5 94.19,0 170.67,-47.51 170.67,-155.38 v -147.32 c 0,-20.94 9.66,-30.6 28.98,-30.6 h 9.66"
         style="fill:#231f20;fill-opacity:1;fill-rule:nonzero;stroke:none"
         id="path48" />
      <path
         d="m 8236.16,1270.39 v 211.73 h -86.14 v 81.31 h 27.37 c 49.11,0 68.43,17.71 68.43,61.18 v 48.3 h 93.39 v -109.48 h 105.46 v -81.31 h -105.46 v -198.05 c 0,-22.54 5.63,-49.91 53.93,-49.91 12.08,0 27.38,2.41 39.46,5.63 v -78.09 c -17.72,-4.03 -41.87,-8.85 -70.85,-8.85 -112.71,0 -125.59,73.25 -125.59,117.54"
         style="fill:#231f20;fill-opacity:1;fill-rule:nonzero;stroke:none"
         id="path50" />
      <path
         d="m 8730.36,1335.59 -90.17,-9.65 c -37.03,-4.03 -65.21,-19.33 -65.21,-50.73 0,-32.19 24.96,-43.47 57.16,-43.47 43.47,0 98.22,20.93 98.22,84.53 z m 170.67,-99.02 v -70.84 c -15.3,-5.63 -29.79,-8.86 -53.94,-8.86 -43.47,0 -81.31,16.11 -98.21,54.75 -26.57,-36.23 -70.04,-58.77 -134.45,-58.77 -82.12,0 -142.5,38.64 -142.5,118.34 0,77.29 58.77,115.12 132.84,122.36 l 125.59,12.88 v 16.92 c 0,44.28 -28.17,66 -67.63,66 -43.46,0 -66.01,-24.15 -72.45,-60.37 h -103.04 c 8.04,83.72 72.45,142.5 175.49,142.5 94.19,0 170.68,-47.51 170.68,-155.38 v -142.5 c 0,-29.78 15.29,-41.86 40.25,-41.86 8.86,0 17.71,1.61 27.37,4.83"
         style="fill:#231f20;fill-opacity:1;fill-rule:nonzero;stroke:none"
         id="path52" />
      <path
         d="m 9338.93,1152.85 c -134.45,0 -206.1,72.45 -210.12,180.33 h 104.66 c 4.82,-56.35 41.05,-90.16 105.46,-90.16 48.3,0 88.55,20.12 88.55,69.23 0,57.15 -55.55,75.67 -107.07,90.97 l -32.21,9.66 c -69.23,20.93 -141.69,63.6 -141.69,156.99 0,100.63 82.12,162.62 190.8,162.62 115.93,0 189.19,-70.03 192.42,-165.85 h -104.66 c -4.84,44.29 -33.01,75.69 -86.96,75.69 -49.91,0 -84.52,-26.57 -84.52,-67.63 0,-48.3 49.1,-64.41 96.6,-78.9 l 28.18,-8.86 c 53.13,-16.1 156.18,-53.93 156.18,-171.47 0,-110.3 -91.78,-162.62 -195.62,-162.62"
         style="fill:#231f20;fill-opacity:1;fill-rule:nonzero;stroke:none"
         id="path54" />
      <path
         d="m 9695.36,1404.02 h 192.4 c -2.41,49.91 -39.44,85.33 -92.58,85.33 -55.54,0 -92.57,-37.03 -99.82,-85.33 z m 291.43,-115.93 c -16.1,-82.92 -85.34,-135.24 -187.58,-135.24 -119.95,0 -206.9,81.31 -206.9,205.28 0,132.84 91.78,213.35 202.87,213.35 99.03,0 190.81,-62.8 190.81,-206.9 0,-9.67 -0.81,-18.52 -1.62,-29.8 h -289.81 c 4.02,-57.95 41.86,-99.82 104.65,-99.82 45.09,0 77.28,18.52 88.55,53.13 h 99.03"
         style="fill:#231f20;fill-opacity:1;fill-rule:nonzero;stroke:none"
         id="path56" />
      <path
         d="m 10052,1563.43 h 93.4 l 9.7,-57.16 h 6.4 c 25,40.26 52.4,65.21 120,65.21 h 29 v -103.05 c -14.5,2.41 -29,3.22 -43.5,3.22 -88.6,0 -111.9,-65.22 -111.9,-123.17 V 1160.9 H 10052 v 402.53"
         style="fill:#231f20;fill-opacity:1;fill-rule:nonzero;stroke:none"
         id="path58" />
      <path
         d="m 10335.8,1563.43 h 106.3 l 107,-295.46 h 6.5 l 105.4,295.46 h 105.5 l -153.8,-402.53 h -123.1 l -153.8,402.53"
         style="fill:#231f20;fill-opacity:1;fill-rule:nonzero;stroke:none"
         id="path60" />
      <path
         d="m 10806.5,1563.43 h 103 V 1160.9 h -103 z m -12.1,113.51 c 0,35.43 29.8,62.8 63.6,62.8 33.8,0 62,-27.37 62,-62.8 0,-33.01 -28.2,-61.98 -62,-61.98 -33.8,0 -63.6,28.97 -63.6,61.98"
         style="fill:#231f20;fill-opacity:1;fill-rule:nonzero;stroke:none"
         id="path62" />
      <path
         d="m 10969,1360.55 c 0,126.39 91.8,210.93 209.3,210.93 93.4,0 182,-49.92 194.8,-155.38 h -103 c -8.9,37.03 -43.5,66.02 -91.8,66.02 -61.2,0 -106.3,-49.92 -106.3,-121.57 0,-70.84 41.9,-118.34 107.9,-118.34 46.7,0 78.1,20.93 91,57.96 h 103.8 c -13.6,-90.16 -90.1,-147.32 -194.8,-147.32 -125.6,0 -210.9,86.13 -210.9,207.7"
         style="fill:#231f20;fill-opacity:1;fill-rule:nonzero;stroke:none"
         id="path64" />
      <path
         d="m 11516.2,1404.02 h 192.4 c -2.4,49.91 -39.4,85.33 -92.5,85.33 -55.6,0 -92.6,-37.03 -99.9,-85.33 z m 291.5,-115.93 c -16.1,-82.92 -85.4,-135.24 -187.6,-135.24 -120,0 -206.9,81.31 -206.9,205.28 0,132.84 91.8,213.35 202.9,213.35 99,0 190.8,-62.8 190.8,-206.9 0,-9.67 -0.8,-18.52 -1.6,-29.8 h -289.9 c 4.1,-57.95 41.9,-99.82 104.7,-99.82 45.1,0 77.3,18.52 88.5,53.13 h 99.1"
         style="fill:#231f20;fill-opacity:1;fill-rule:nonzero;stroke:none"
         id="path66" />
      <path
         d="M 3685.04,850.379 H 850.395 V 3685.02 H 3685.04 V 850.379"
         style="fill:#231f20;fill-opacity:1;fill-rule:nonzero;stroke:none"
         id="path68" />
      <path
         d="m 3042.56,2267.7 h -444.33 v 474.48 z m -387.42,-882.1 h -387.42 v -154.9 l -272.7,357.39 c 207.63,38.22 314.85,145.58 314.85,332.53 0,46.13 -6.6,87.32 -19.55,123.82 h 364.82 z m -1162.27,658.84 h 302.41 c 124.32,0 174.71,-48.19 174.71,-123.82 0,-75.63 -50.39,-125.36 -174.71,-125.36 h -302.41 z m 774.85,561.42 v -512.82 c -70.38,118.84 -232.23,174.02 -472.44,174.62 214.35,21.77 412.51,137.42 472.44,338.2 z m 1105.36,767.2 H 3042.56 L 2598.23,2899.9 v 473.16 h -642.07 v -628.12 c 0,-134.47 -99.56,-212.54 -231.64,-212.54 -132.08,0 -231.65,78.07 -231.65,212.54 v 628.12 h -330.52 v -632.92 c 0,-283.46 228.85,-446.06 487.02,-472.44 H 1162.35 V 1162.34 h 330.52 V 1572 h 144.37 l 305.43,-409.66 h 1430.41 v 223.26 h -387.42 v 658.84 h 387.42 v 291.62 l -473.75,485.09 473.75,483.56 v 68.35"
         style="fill:#ffffff;fill-opacity:1;fill-rule:nonzero;stroke:none"
         id="path70" />
      <path
         d="m 5380.38,3684.97 c 515.55,-214.06 898.68,-520.3 1139.25,-925.75 v 925.75 H 5380.38"
         style="fill:#656263;fill-opacity:1;fill-rule:nonzero;stroke:none"
         id="path72" />
      <path
         d="m 5380.38,3684.97 c -455.54,189.15 -1014.77,306.1 -1671.36,355.25 h -23.98 v -1745 c 421.12,-143.74 602.54,-437.75 602.54,-830.56 0,-246.29 -71.37,-455.87 -228.31,-614.281 H 6519.63 V 2759.22 c -240.57,405.45 -623.7,711.69 -1139.25,925.75"
         style="fill:#a7a5a6;fill-opacity:1;fill-rule:nonzero;stroke:none"
         id="path74" />
      <path
         d="M 3685.04,2295.22 V 850.379 h 374.23 c 156.94,158.411 228.31,367.991 228.31,614.281 0,392.81 -181.42,686.82 -602.54,830.56"
         style="fill:#656263;fill-opacity:1;fill-rule:nonzero;stroke:none"
         id="path76" />
    </g>
  </g>
</svg>
